<?xml version="1.0" encoding="UTF-8"?>
<svg version="1.1" xmlns="http://www.w3.org/2000/svg" width="600" height="600">
<path d="M0 0 C198 0 396 0 600 0 C600 198 600 396 600 600 C402 600 204 600 0 600 C0 402 0 204 0 0 Z " fill="#FEFEFE" transform="translate(0,0)"/>
<path d="M0 0 C0.77794922 -0.02900391 1.55589844 -0.05800781 2.35742188 -0.08789062 C9.18055292 -0.16186953 14.05867174 1.7507173 19.40625 5.9609375 C23.76070927 11.30724583 24.08806504 16.18409296 23.76171875 22.96484375 C22.918267 29.25039288 20.98923293 33.30068996 15.9375 37.1875 C8.09598324 42.50189288 -1.59794391 42.25153219 -10.6875 41.3125 C-16.07298616 39.8952668 -19.69995071 37.02363542 -22.6875 32.3125 C-25.66682256 26.02883788 -26.11540512 18.4766698 -23.84765625 11.86328125 C-18.63227664 2.64417588 -10.0072928 0.12134955 0 0 Z " fill="#07708E" transform="translate(396.6875,270.6875)"/>
<path d="M0 0 C3.465 -0.0825 6.93 -0.165 10.5 -0.25 C12.11358398 -0.30462402 12.11358398 -0.30462402 13.75976562 -0.36035156 C21.11978814 -0.4445437 26.47355087 0.90099925 32.0625 5.8125 C33.53293018 9.24350376 32.99613516 11.45126849 32 15 C29.625 17.75 29.625 17.75 27 20 C25.99293313 20.99288283 24.99126687 21.99134248 24 23 C30.19587439 30.41998331 35.79205646 36.61749013 45 40 C45 40.66 45 41.32 45 42 C35.67473517 42.58282905 29.99547618 40.98570805 22.875 34.8125 C14.3837188 26.76743759 14.3837188 26.76743759 12 22 C13 19 13 19 14.8125 17.8671875 C15.534375 17.53976562 16.25625 17.21234375 17 16.875 C19.70303178 15.7328129 19.70303178 15.7328129 22 14 C22.04063832 12.33382885 22.042721 10.66611905 22 9 C17.39090008 6.40736224 17.39090008 6.40736224 9 6 C9 17.55 9 29.1 9 41 C6.03 41 3.06 41 0 41 C0 27.47 0 13.94 0 0 Z " fill="#0D7390" transform="translate(441,271)"/>
<path d="M0 0 C3.444375 -0.0825 6.88875 -0.165 10.4375 -0.25 C12.03742798 -0.30462402 12.03742798 -0.30462402 13.66967773 -0.36035156 C20.12294584 -0.43438295 25.52147569 0.38671573 31 4 C33.51250583 7.76875875 33.53016086 9.53150134 33 14 C31.22229561 17.18003694 29.17022327 19.55721282 25.6875 20.875 C25.130625 20.91625 24.57375 20.9575 24 21 C27.39560759 26.94231328 30.96699727 31.26082527 36.5625 35.25 C37.98755859 36.27867187 37.98755859 36.27867187 39.44140625 37.328125 C41.95794583 39.12721237 41.95794583 39.12721237 45 40 C45 40.66 45 41.32 45 42 C38.03076163 42.51412414 32.70759493 42.26513003 27 38 C15.84875025 27.87786007 15.84875025 27.87786007 13 23 C13.0625 20.88671875 13.0625 20.88671875 14 19 C15.8125 17.76953125 15.8125 17.76953125 18 16.8125 C20.70697055 15.71045539 20.70697055 15.71045539 23 14 C23.04063832 12.33382885 23.042721 10.66611905 23 9 C18.24350993 6.32509219 18.24350993 6.32509219 9 6 C9 17.55 9 29.1 9 41 C6.03 41 3.06 41 0 41 C0 27.47 0 13.94 0 0 Z " fill="#0A728F" transform="translate(166,271)"/>
<path d="M0 0 C4.83858548 2.32968931 7.67031069 5.16141452 10 10 C10.86874036 15.99333238 10.39056417 20.85136551 7 26 C4.58564265 29.21914313 1.85946666 30.05333837 -2 31 C-5.86414542 31.43945183 -9.1180427 31.3808452 -12.75 29.8125 C-16.25536595 26.98873298 -18.57096705 24.28709884 -20 20 C-20.51853818 15.0611364 -20.55199525 11.14645166 -18.375 6.625 C-12.85535396 0.52433859 -8.08318468 -1.29015 0 0 Z " fill="#FAFCFD" transform="translate(401,276)"/>
<path d="M0 0 C9.57 0 19.14 0 29 0 C29 1.98 29 3.96 29 6 C22.73 6 16.46 6 10 6 C10 9.63 10 13.26 10 17 C15.94 17 21.88 17 28 17 C28 18.65 28 20.3 28 22 C21.73 22 15.46 22 9 22 C9 26.29 9 30.58 9 35 C15.6 35 22.2 35 29 35 C29 36.98 29 38.96 29 41 C19.43 41 9.86 41 0 41 C0 27.47 0 13.94 0 0 Z " fill="#187995" transform="translate(111,271)"/>
<path d="M0 0 C3.485625 -0.061875 6.97125 -0.12375 10.5625 -0.1875 C12.18973999 -0.22846802 12.18973999 -0.22846802 13.84985352 -0.27026367 C20.923007 -0.33077359 25.59941072 0.55855129 31.4375 4.75 C33.73035986 8.0517182 33.61079828 10.06374441 33 14 C30.03356523 18.53690024 27.13260639 21.22332856 22 23 C18.98034848 23.22276118 16.02071326 23.1812428 13 23 C13 21.68 13 20.36 13 19 C13.63808594 18.78085937 14.27617187 18.56171875 14.93359375 18.3359375 C17.44304412 17.3728723 19.71624175 16.42196269 22 15 C23.21790719 11.883975 23.21790719 11.883975 23 9 C18.24350993 6.32509219 18.24350993 6.32509219 9 6 C9 17.55 9 29.1 9 41 C6.03 41 3.06 41 0 41 C0 27.47 0 13.94 0 0 Z " fill="#09718F" transform="translate(322,271)"/>
<path d="M0 0 C1.30517578 0.02030273 1.30517578 0.02030273 2.63671875 0.04101562 C4.75808627 0.07598322 6.87912974 0.1297747 9 0.1875 C9 2.4975 9 4.8075 9 7.1875 C7.15535156 7.11789062 7.15535156 7.11789062 5.2734375 7.046875 C3.6406494 7.00933964 2.00783489 6.97294138 0.375 6.9375 C-0.43324219 6.90398437 -1.24148437 6.87046875 -2.07421875 6.8359375 C-7.57666837 6.74646677 -10.63247214 7.5209334 -15 11.1875 C-17.91030388 14.67986466 -18.47782319 17.64789586 -18.2890625 22.1953125 C-17.69130163 26.31501578 -16.05552791 29.23092783 -13 32 C-6.66679202 35.76034224 2.05352297 34.68944098 9 33.1875 C9.495 36.6525 9.495 36.6525 10 40.1875 C5.3933628 41.32300376 0.9046727 41.44157094 -3.8125 41.5 C-4.96588867 41.54350586 -4.96588867 41.54350586 -6.14257812 41.58789062 C-13.36314161 41.66710356 -18.34848104 39.37788522 -23.875 34.8125 C-28.05024124 29.65484905 -28.50593709 24.40544706 -28.3828125 17.94140625 C-27.60751501 12.36401105 -24.56875357 8.75625357 -20.6875 4.875 C-13.81809385 0.56165195 -7.92276871 -0.23731796 0 0 Z " fill="#08708E" transform="translate(77,270.8125)"/>
<path d="M0 0 C12.21 0 24.42 0 37 0 C37 1.98 37 3.96 37 6 C32.38 6 27.76 6 23 6 C23 17.55 23 29.1 23 41 C20.03 41 17.06 41 14 41 C14 29.45 14 17.9 14 6 C9.38 6 4.76 6 0 6 C0 4.02 0 2.04 0 0 Z " fill="#107592" transform="translate(221,271)"/>
<path d="M0 0 C12.54 0 25.08 0 38 0 C38 1.98 38 3.96 38 6 C33.05 6 28.1 6 23 6 C23 17.55 23 29.1 23 41 C20.36 41 17.72 41 15 41 C15 29.45 15 17.9 15 6 C10.05 6 5.1 6 0 6 C0 4.02 0 2.04 0 0 Z " fill="#066F8E" transform="translate(495,271)"/>
<path d="M0 0 C-1.49685593 3.90741206 -3.63961244 5.38468205 -7.12109375 7.6015625 C-8.13880859 8.25640625 -9.15652344 8.91125 -10.20507812 9.5859375 C-11.27177734 10.25882813 -12.33847656 10.93171875 -13.4375 11.625 C-14.50033203 12.305625 -15.56316406 12.98625 -16.65820312 13.6875 C-18.62928937 14.94919467 -20.60291812 16.20693201 -22.57983398 17.45947266 C-24.40033041 18.61828759 -26.2044171 19.80294473 -28 21 C-32.43913965 21.88247957 -34.89127361 20.67038027 -38.53125 18.296875 C-40.19746556 17.12866981 -41.85349645 15.94582762 -43.5 14.75 C-45.15619271 13.57804404 -46.81244144 12.40616723 -48.46875 11.234375 C-49.24476563 10.67427734 -50.02078125 10.11417969 -50.8203125 9.53710938 C-52.70974871 8.20468438 -54.62660841 6.97777211 -56.59375 5.765625 C-57.3878125 5.18296875 -58.181875 4.6003125 -59 4 C-59 3.01 -59 2.02 -59 1 C-55.38378137 1.58465332 -52.57246074 2.56040143 -49.34765625 4.28515625 C-48.48849609 4.73310547 -47.62933594 5.18105469 -46.74414062 5.64257812 C-44.95780956 6.58843587 -43.17393924 7.53895577 -41.39257812 8.49414062 C-40.53212891 8.94080078 -39.67167969 9.38746094 -38.78515625 9.84765625 C-37.62318726 10.4665271 -37.62318726 10.4665271 -36.43774414 11.09790039 C-32.34492014 12.61247071 -29.23202731 12.48112405 -25.17919922 10.8984375 C-24.23061035 10.39570313 -23.28202148 9.89296875 -22.3046875 9.375 C-21.25925781 8.83359375 -20.21382813 8.2921875 -19.13671875 7.734375 C-18.06035156 7.16203125 -16.98398437 6.5896875 -15.875 6 C-13.7303703 4.86775792 -11.58207166 3.74243059 -9.4296875 2.625 C-8.48335449 2.12226563 -7.53702148 1.61953125 -6.56201172 1.1015625 C-4 0 -4 0 0 0 Z " fill="#FFD112" transform="translate(316,242)"/>
<path d="M0 0 C2.97 0 5.94 0 9 0 C8.88061133 5.21049021 8.75630469 10.42083297 8.62768555 15.63110352 C8.58470805 17.39897578 8.54301177 19.16687972 8.50268555 20.93481445 C8.07132673 39.77081595 8.07132673 39.77081595 7 49 C5.35 49 3.7 49 2 49 C1.2664779 41.58737665 0.74650237 34.19207152 0.4375 26.75 C0.3950415 25.75798584 0.35258301 24.76597168 0.30883789 23.74389648 C-0.01006917 15.82383639 -0.1126862 7.92559609 0 0 Z " fill="#0C7290" transform="translate(281,268)"/>
<path d="M0 0 C6.75 -0.125 6.75 -0.125 9 1 C8.979375 1.7425 8.95875 2.485 8.9375 3.25 C8.88266896 5.93826222 8.88266896 5.93826222 9.625 8.1875 C9.74875 8.785625 9.8725 9.38375 10 10 C8 12 8 12 6.0546875 12.1953125 C4.03645833 12.13020833 2.01822917 12.06510417 0 12 C0 8.04 0 4.08 0 0 Z " fill="#9A9898" transform="translate(328,348)"/>
<path d="M0 0 C1.52150158 3.04300316 1.23899393 5.654085 1 9 C-2.22373677 11.14915785 -3.26703674 11.38286803 -7 11 C-9 9 -9 9 -9.3125 5.5625 C-9 2 -9 2 -7.875 0 C-5.01598528 -1.52480785 -3.03270286 -0.8570682 0 0 Z " fill="#423E3F" transform="translate(259,349)"/>
<path d="M0 0 C6.0546875 -0.1953125 6.0546875 -0.1953125 8 0 C10 2 10 2 10.1953125 4.3828125 C10.17210937 5.28773438 10.14890625 6.19265625 10.125 7.125 C10.10695312 8.03507812 10.08890625 8.94515625 10.0703125 9.8828125 C10.04710937 10.58148438 10.02390625 11.28015625 10 12 C9.34 12 8.68 12 8 12 C7.67 10.68 7.34 9.36 7 8 C5.68 7.67 4.36 7.34 3 7 C3 8.65 3 10.3 3 12 C2.01 12 1.02 12 0 12 C0 8.04 0 4.08 0 0 Z " fill="#807E7E" transform="translate(224,348)"/>
<path d="M0 0 C5.56818182 0.56818182 5.56818182 0.56818182 7 2 C6.71269945 4.33944736 6.38063221 6.6739143 6 9 C0.56559513 10.32841008 0.56559513 10.32841008 -1.9375 8.875 C-3 7 -3 7 -2.8125 4.4375 C-2 2 -2 2 0 0 Z " fill="#117692" transform="translate(283,240)"/>
<path d="M0 0 C0.99 0 1.98 0 3 0 C4.6875 2.5 4.6875 2.5 6 5 C6.33 3.35 6.66 1.7 7 0 C7.99 0 8.98 0 10 0 C10 3.96 10 7.92 10 12 C9.01 12 8.02 12 7 12 C5.02 8.535 5.02 8.535 3 5 C2.67 7.31 2.34 9.62 2 12 C1.34 12 0.68 12 0 12 C0 8.04 0 4.08 0 0 Z " fill="#565354" transform="translate(264,348)"/>
<path d="M0 0 C0.99 0 1.98 0 3 0 C3 3.3 3 6.6 3 10 C4.32 10 5.64 10 7 10 C7 6.7 7 3.4 7 0 C7.99 0 8.98 0 10 0 C10.05395478 1.62463842 10.09277195 3.24978541 10.125 4.875 C10.14820313 5.77992188 10.17140625 6.68484375 10.1953125 7.6171875 C10 10 10 10 8 12 C5 12.25 5 12.25 2 12 C0 10 0 10 -0.1953125 7.6171875 C-0.17210937 6.71226562 -0.14890625 5.80734375 -0.125 4.875 C-0.10695313 3.96492188 -0.08890625 3.05484375 -0.0703125 2.1171875 C-0.04710937 1.41851562 -0.02390625 0.71984375 0 0 Z " fill="#767474" transform="translate(341,348)"/>
<path d="M0 0 C3.375 -0.125 3.375 -0.125 7 0 C7.66 0.66 8.32 1.32 9 2 C8.625 4.625 8.625 4.625 8 7 C6.02 7 4.04 7 2 7 C2 8.65 2 10.3 2 12 C1.34 12 0.68 12 0 12 C0 8.04 0 4.08 0 0 Z " fill="#413D3E" transform="translate(187,348)"/>
<path d="M0 0 C2.5 0.25 2.5 0.25 4.5 2.25 C4.75 4.75 4.75 4.75 4.5 7.25 C2.5 9.25 2.5 9.25 0 9.5 C-2.5 9.25 -2.5 9.25 -4.5 7.25 C-4.75 4.75 -4.75 4.75 -4.5 2.25 C-2.5 0.25 -2.5 0.25 0 0 Z " fill="#5BA0B4" transform="translate(546.5,270.75)"/>
<path d="M0 0 C3.73639216 1.24546405 4.18756513 2.63404953 6 6 C6.33 4.02 6.66 2.04 7 0 C7.66 0 8.32 0 9 0 C9 3.96 9 7.92 9 12 C4.5 9.75 4.5 9.75 3 6 C2.67 7.98 2.34 9.96 2 12 C1.34 12 0.68 12 0 12 C0 8.04 0 4.08 0 0 Z " fill="#444141" transform="translate(374,348)"/>
<path d="M0 0 C2.97 0 5.94 0 9 0 C9 0.66 9 1.32 9 2 C6.69 2 4.38 2 2 2 C2 2.99 2 3.98 2 5 C3.98 5 5.96 5 8 5 C8 5.66 8 6.32 8 7 C6.02 7 4.04 7 2 7 C2 7.99 2 8.98 2 10 C4.31 10 6.62 10 9 10 C9 10.66 9 11.32 9 12 C6.03 12 3.06 12 0 12 C0 8.04 0 4.08 0 0 Z " fill="#4E4B4C" transform="translate(387,348)"/>
<path d="M0 0 C0.99 0.33 1.98 0.66 3 1 C4.16796875 3.50390625 4.16796875 3.50390625 5.1875 6.5625 C5.53167969 7.57441406 5.87585938 8.58632813 6.23046875 9.62890625 C6.48441406 10.41136719 6.73835937 11.19382812 7 12 C6.01 12 5.02 12 4 12 C4 11.01 4 10.02 4 9 C1.52733235 9.34444881 1.52733235 9.34444881 -1 10 C-1.33 10.66 -1.66 11.32 -2 12 C-2.66 12 -3.32 12 -4 12 C-3.33501617 7.61110675 -1.81242323 4.0188515 0 0 Z " fill="#433F40" transform="translate(171,348)"/>
<path d="M0 0 C3 1 3 1 3.94921875 2.7421875 C4.31466797 3.79792969 4.31466797 3.79792969 4.6875 4.875 C5.06455078 5.92300781 5.06455078 5.92300781 5.44921875 6.9921875 C6 9 6 9 6 12 C5.34 12 4.68 12 4 12 C4 11.01 4 10.02 4 9 C2.02 9 0.04 9 -2 9 C-2 9.99 -2 10.98 -2 12 C-2.66 12 -3.32 12 -4 12 C-3.33501617 7.61110675 -1.81242323 4.0188515 0 0 Z " fill="#585556" transform="translate(215,348)"/>
<path d="M0 0 C2.64 0 5.28 0 8 0 C8 0.66 8 1.32 8 2 C6.02 2 4.04 2 2 2 C2 2.99 2 3.98 2 5 C3.98 5 5.96 5 8 5 C8 5.66 8 6.32 8 7 C6.02 7 4.04 7 2 7 C2 7.99 2 8.98 2 10 C3.98 10 5.96 10 8 10 C8 10.66 8 11.32 8 12 C5.36 12 2.72 12 0 12 C0 8.04 0 4.08 0 0 Z " fill="#3D3A3B" transform="translate(200,348)"/>
<path d="M0 0 C1.2065625 0.0309375 1.2065625 0.0309375 2.4375 0.0625 C3.0975 1.3825 3.7575 2.7025 4.4375 4.0625 C2.4575 3.4025 0.4775 2.7425 -1.5625 2.0625 C-1.5625 3.0525 -1.5625 4.0425 -1.5625 5.0625 C1.4075 5.5575 1.4075 5.5575 4.4375 6.0625 C4.4375 7.7125 4.4375 9.3625 4.4375 11.0625 C2.1275 11.3925 -0.1825 11.7225 -2.5625 12.0625 C-3.2225 10.7425 -3.8825 9.4225 -4.5625 8.0625 C-2.2525 8.7225 0.0575 9.3825 2.4375 10.0625 C2.4375 9.0725 2.4375 8.0825 2.4375 7.0625 C-0.5325 6.5675 -0.5325 6.5675 -3.5625 6.0625 C-3.605221 4.39638095 -3.60313832 2.72867115 -3.5625 1.0625 C-2.5625 0.0625 -2.5625 0.0625 0 0 Z " fill="#484546" transform="translate(415.5625,347.9375)"/>
<path d="M0 0 C1.2065625 0.0309375 1.2065625 0.0309375 2.4375 0.0625 C3.0975 1.3825 3.7575 2.7025 4.4375 4.0625 C3.7775 4.0625 3.1175 4.0625 2.4375 4.0625 C2.4375 3.4025 2.4375 2.7425 2.4375 2.0625 C1.1175 2.0625 -0.2025 2.0625 -1.5625 2.0625 C-1.5625 3.0525 -1.5625 4.0425 -1.5625 5.0625 C1.4075 5.5575 1.4075 5.5575 4.4375 6.0625 C4.480221 7.72861905 4.47813832 9.39632885 4.4375 11.0625 C3.4375 12.0625 3.4375 12.0625 0.375 12.125 C-0.594375 12.104375 -1.56375 12.08375 -2.5625 12.0625 C-3.2225 10.7425 -3.8825 9.4225 -4.5625 8.0625 C-2.2525 8.7225 0.0575 9.3825 2.4375 10.0625 C2.4375 9.0725 2.4375 8.0825 2.4375 7.0625 C-0.5325 6.5675 -0.5325 6.5675 -3.5625 6.0625 C-3.605221 4.39638095 -3.60313832 2.72867115 -3.5625 1.0625 C-2.5625 0.0625 -2.5625 0.0625 0 0 Z " fill="#3F3C3D" transform="translate(241.5625,347.9375)"/>
<path d="M0 0 C0.33 0.99 0.66 1.98 1 3 C0.34 3 -0.32 3 -1 3 C-1 2.34 -1 1.68 -1 1 C-2.32 1 -3.64 1 -5 1 C-5 1.99 -5 2.98 -5 4 C-2.03 4.495 -2.03 4.495 1 5 C1.042721 6.66611905 1.04063832 8.33382885 1 10 C0 11 0 11 -3.0625 11.0625 C-4.031875 11.041875 -5.00125 11.02125 -6 11 C-6.66 9.68 -7.32 8.36 -8 7 C-5.69 7.66 -3.38 8.32 -1 9 C-1 8.01 -1 7.02 -1 6 C-2.65 5.67 -4.3 5.34 -6 5 C-6.33 3.35 -6.66 1.7 -7 0 C-4.3333581 -1.33332095 -2.83319697 -0.67102033 0 0 Z " fill="#3B3738" transform="translate(362,349)"/>
<path d="M0 0 C1.2065625 0.0309375 1.2065625 0.0309375 2.4375 0.0625 C3.0975 1.3825 3.7575 2.7025 4.4375 4.0625 C2.1275 3.4025 -0.1825 2.7425 -2.5625 2.0625 C-1.05586217 5.07577566 1.46916411 5.67306618 4.4375 7.0625 C3.5625 10.9375 3.5625 10.9375 2.4375 12.0625 C0.77132885 12.10313832 -0.89638095 12.105221 -2.5625 12.0625 C-3.2225 10.7425 -3.8825 9.4225 -4.5625 8.0625 C-3.9025 8.0625 -3.2425 8.0625 -2.5625 8.0625 C-2.5625 8.7225 -2.5625 9.3825 -2.5625 10.0625 C-0.9125 10.0625 0.7375 10.0625 2.4375 10.0625 C0.30969421 7.72191363 -1.67812221 6.35549694 -4.5625 5.0625 C-3.43829114 0.08386076 -3.43829114 0.08386076 0 0 Z " fill="#3F3B3C" transform="translate(403.5625,347.9375)"/>
<path d="M0 0 C0.66 0 1.32 0 2 0 C2.33 2.97 2.66 5.94 3 9 C4.32 9.33 5.64 9.66 7 10 C7 7.03 7 4.06 7 1 C7.66 1 8.32 1 9 1 C9.05399736 2.45792884 9.09279177 3.91642712 9.125 5.375 C9.14820313 6.18710937 9.17140625 6.99921875 9.1953125 7.8359375 C9 10 9 10 7 12 C4.5 12.25 4.5 12.25 2 12 C0 10 0 10 -0.1953125 7.6171875 C-0.17210937 6.71226562 -0.14890625 5.80734375 -0.125 4.875 C-0.10695313 3.96492188 -0.08890625 3.05484375 -0.0703125 2.1171875 C-0.04710937 1.41851562 -0.02390625 0.71984375 0 0 Z " fill="#3A3738" transform="translate(296,348)"/>
<path d="M0 0 C2.64 0 5.28 0 8 0 C8 0.33 8 0.66 8 1 C6.02 1 4.04 1 2 1 C2 1.99 2 2.98 2 4 C3.65 4 5.3 4 7 4 C7 4.66 7 5.32 7 6 C5.35 6 3.7 6 2 6 C2 6.99 2 7.98 2 9 C3.98 9 5.96 9 8 9 C8 9.66 8 10.32 8 11 C5.36 11 2.72 11 0 11 C0 7.37 0 3.74 0 0 Z " fill="#3B3839" transform="translate(310,349)"/>
<path d="M0 0 C0.99 0.33 1.98 0.66 3 1 C3.33 2.98 3.66 4.96 4 7 C4.66 7 5.32 7 6 7 C6.33 5.02 6.66 3.04 7 1 C7.99 0.67 8.98 0.34 10 0 C9.52309796 1.62566606 9.04340334 3.25051311 8.5625 4.875 C8.29566406 5.77992188 8.02882813 6.68484375 7.75390625 7.6171875 C7 10 7 10 6 12 C5.01 11.67 4.02 11.34 3 11 C2.05078125 9.00390625 2.05078125 9.00390625 1.3125 6.5625 C1.06113281 5.75941406 0.80976563 4.95632813 0.55078125 4.12890625 C0 2 0 2 0 0 Z " fill="#524E4F" transform="translate(283,348)"/>
<path d="M0 0 C2.31 0 4.62 0 7 0 C7 0.66 7 1.32 7 2 C5.35 2 3.7 2 2 2 C2 4.64 2 7.28 2 10 C3.98 10 5.96 10 8 10 C8 10.66 8 11.32 8 12 C5.36 12 2.72 12 0 12 C0 8.04 0 4.08 0 0 Z " fill="#484445" transform="translate(328,348)"/>
<path d="M0 0 C1.67542976 0.28604898 3.34385343 0.61781233 5 1 C5 2.98 5 4.96 5 7 C3.34385343 7.38218767 1.67542976 7.71395102 0 8 C-1 7 -1 7 -1.125 4 C-1 1 -1 1 0 0 Z " fill="#F8F8F8" transform="translate(253,350)"/>
<path d="M0 0 C2 1 2 1 2.75 2.9375 C2.8325 3.618125 2.915 4.29875 3 5 C1 7 1 7 -1.625 7.125 C-2.40875 7.08375 -3.1925 7.0425 -4 7 C-5.24546405 4.50907189 -4.7767578 3.58919267 -4 1 C-3.01 1.33 -2.02 1.66 -1 2 C-0.67 1.34 -0.34 0.68 0 0 Z " fill="#95C2CF" transform="translate(548,273)"/>
<path d="M0 0 C1.32 0 2.64 0 4 0 C4 1.65 4 3.3 4 5 C1.69 5.33 -0.62 5.66 -3 6 C-3.66 4.68 -4.32 3.36 -5 2 C-2.69 2.66 -0.38 3.32 2 4 C2 3.01 2 2.02 2 1 C1.34 0.67 0.68 0.34 0 0 Z " fill="#3D393A" transform="translate(416,354)"/>
<path d="M0 0 C0.66 0 1.32 0 2 0 C2 3.96 2 7.92 2 12 C1.01 11.67 0.02 11.34 -1 11 C-0.67 7.37 -0.34 3.74 0 0 Z " fill="#353132" transform="translate(381,348)"/>
<path d="M0 0 C0.66 0 1.32 0 2 0 C2.33 3.63 2.66 7.26 3 11 C2.01 10.67 1.02 10.34 0 10 C0 6.7 0 3.4 0 0 Z " fill="#322E2F" transform="translate(296,348)"/>
<path d="M0 0 C2.64 0 5.28 0 8 0 C8 0.66 8 1.32 8 2 C6.02 2 4.04 2 2 2 C2 2.99 2 3.98 2 5 C1.34 5 0.68 5 0 5 C0 3.35 0 1.7 0 0 Z " fill="#474444" transform="translate(200,348)"/>
<path d="M0 0 C2.31 0.66 4.62 1.32 7 2 C7.33 1.34 7.66 0.68 8 0 C8.33 0.99 8.66 1.98 9 3 C8 4 8 4 4.9375 4.0625 C3.968125 4.041875 2.99875 4.02125 2 4 C1.34 2.68 0.68 1.36 0 0 Z " fill="#494647" transform="translate(237,356)"/>
<path d="M0 0 C2.31 0.66 4.62 1.32 7 2 C7.33 1.34 7.66 0.68 8 0 C8.33 0.99 8.66 1.98 9 3 C8 4 8 4 4.9375 4.0625 C3.968125 4.041875 2.99875 4.02125 2 4 C1.34 2.68 0.68 1.36 0 0 Z " fill="#4D4A4A" transform="translate(354,356)"/>
<path d="M0 0 C0.99 0.33 1.98 0.66 3 1 C3.75 2.9375 3.75 2.9375 4 5 C3.67 5.66 3.34 6.32 3 7 C2.01 7 1.02 7 0 7 C0 4.69 0 2.38 0 0 Z " fill="#7E7B7C" transform="translate(171,348)"/>
<path d="M0 0 C0.66 0 1.32 0 2 0 C1.01 3.3 0.02 6.6 -1 10 C-1.33 10 -1.66 10 -2 10 C-1.85950482 8.52031676 -1.71245174 7.04125484 -1.5625 5.5625 C-1.48128906 4.73878906 -1.40007812 3.91507812 -1.31640625 3.06640625 C-1 1 -1 1 0 0 Z " fill="#494647" transform="translate(291,348)"/>
<path d="M0 0 C0.33 1.32 0.66 2.64 1 4 C2.32 4.33 3.64 4.66 5 5 C4.360625 5.12375 3.72125 5.2475 3.0625 5.375 C2.0415625 5.684375 2.0415625 5.684375 1 6 C0.67 6.66 0.34 7.32 0 8 C-0.66 8 -1.32 8 -2 8 C-1.47731534 5.23723823 -0.89130413 2.6739124 0 0 Z " fill="#504D4D" transform="translate(169,352)"/>
<path d="M0 0 C2.475 0.495 2.475 0.495 5 1 C4.67 1.99 4.34 2.98 4 4 C2.68 4 1.36 4 0 4 C0 2.68 0 1.36 0 0 Z " fill="#E2E1E1" transform="translate(189,350)"/>
<path d="M0 0 C2.64 0 5.28 0 8 0 C8.625 1.875 8.625 1.875 9 4 C8.34 4.66 7.68 5.32 7 6 C6.67 4.68 6.34 3.36 6 2 C3.03 1.505 3.03 1.505 0 1 C0 0.67 0 0.34 0 0 Z " fill="#393536" transform="translate(225,349)"/>
<path d="M0 0 C0.33 0 0.66 0 1 0 C1.1546875 1.8871875 1.1546875 1.8871875 1.3125 3.8125 C1.64858808 6.60499657 1.80025876 7.74433121 3.5625 10 C4.036875 10.33 4.51125 10.66 5 11 C3.35 10.67 1.7 10.34 0 10 C0 6.7 0 3.4 0 0 Z " fill="#2F2B2C" transform="translate(342,349)"/>
</svg>
